<?xml version="1.0" standalone="no"?>
<!DOCTYPE svg PUBLIC "-//W3C//DTD SVG 1.1//EN" "http://www.w3.org/Graphics/SVG/1.1/DTD/svg11.dtd" >
<svg xmlns="http://www.w3.org/2000/svg" xmlns:xlink="http://www.w3.org/1999/xlink" version="1.1">
<metadata></metadata>
<defs>
<font id="handwritingmedium" horiz-adv-x="464" >
<font-face units-per-em="2048" ascent="1638" descent="-410" />
<missing-glyph horiz-adv-x="500" />
<glyph horiz-adv-x="0" />
<glyph unicode="&#xd;" />
<glyph unicode=" " />
<glyph unicode="!" horiz-adv-x="698" d="M57 -35q31 39 45.5 58.5t23.5 24.5t18.5 0t29.5 -15q-2 -18 -15.5 -41t-31.5 -42.5t-37.5 -33.5t-32.5 -18v67zM164 264l422 944q35 -16 40 -30.5t9 -44.5l-434 -918q-16 14 -21.5 16t-5.5 3.5t-1 5.5t-9 24z" />
<glyph unicode="&#x22;" horiz-adv-x="475" d="M90 836q0 8 7 36.5t19.5 62.5t27 65.5t30.5 43.5q14 -23 15 -31.5t-2 -12t-8 -3.5t-5 -2q0 -41 -18.5 -99t-53.5 -97q-12 14 -12 37zM220 781q1 7 1 14v14q23 98 49 172q12 31 24.5 60.5t27 49t29 27.5t30.5 0l-141 -338l-19 -12q-2 6 -1 13zM317 1559h48h-48zM383 1559 h115h-115zM535 1559h282h-282z" />
<glyph unicode="#" horiz-adv-x="958" d="M29 223q-4 39 15 58.5t53 35t77 33t87 52t83 92t66 151.5q-37 -10 -85.5 -34.5t-93.5 -50t-81.5 -46t-55.5 -22.5v55q25 29 75 53.5t104.5 45t101.5 36.5t69 27q12 6 24.5 28.5t24 49t21.5 53t18.5 41t14.5 11.5t10 -34q-8 -29 -3 -51.5t5 -50.5q49 4 74.5 16t46.5 29 q6 12 16.5 34.5t23.5 61.5t27.5 95.5t28.5 133.5h39q2 -12 2 -20v-12q0 -6 -2 -7q0 -63 -9 -104t-19.5 -68.5t-19.5 -46t-9 -37.5q0 -6 11 -9t25.5 -7t25.5 -10t11 -21q0 -8 -11 -12t-28.5 -9t-37 -12.5t-33.5 -21.5q-8 -6 -13.5 -24.5t-10.5 -40t-9 -43t-10 -35.5 q43 27 74 39q27 10 46 8t11 -37l-51 -53q-12 -8 -26.5 -10.5t-28 -4.5t-26.5 -6t-22 -14q-27 -25 -46 -97.5t-34.5 -156.5t-30 -160t-28.5 -104q-18 20 -22.5 35.5t-3 30t6.5 27.5t5 30q0 49 11 94t23.5 89t22.5 87t8 90q-70 -47 -115.5 -65.5t-73.5 -30.5t-40 -28.5 t-16 -55.5q33 10 44 12l33 6q-23 -53 -55.5 -88t-105.5 -63q-6 16 -13.5 27.5t-7.5 27.5q0 10 6 17.5t14.5 16.5t14.5 22.5t6 35.5q-16 -4 -43 -17.5t-58.5 -27.5t-65.5 -26.5t-62 -12.5zM399 459q78 35 131.5 62.5t85.5 45.5q4 29 16.5 70t12.5 74q-47 -8 -77.5 -18.5 t-53.5 -24.5q-35 -23 -54.5 -70t-60.5 -139z" />
<glyph unicode="$" horiz-adv-x="911" d="M-8 494q0 6 26.5 26.5t69.5 50t95.5 64.5t105.5 69.5t100 67t78 55.5q70 51 95.5 116t34.5 122t17.5 95t44.5 38q23 0 39.5 -17.5t16.5 -39.5v-39h-47q-6 -6 -24.5 -64.5t-40 -134.5t-39 -146.5t-21.5 -101.5q27 -2 62.5 10.5t101.5 12.5q35 0 55 -19.5t20 -60.5 q0 -25 -33.5 -58.5t-83 -71.5t-103.5 -78t-95 -77q-16 -14 -34.5 -64t-37 -109.5t-33 -118t-20.5 -87.5l41 -14v-49q-25 -31 -34 -53.5t-42 -32.5q-18 29 -22 46t-1 32.5t9 32t6 45.5q0 33 4 63.5t13.5 65t23.5 76.5t37 100q-31 -6 -56.5 -20.5t-52 -29t-59.5 -25.5t-76 -11 q-55 0 -55 47q0 6 21.5 32.5t55 56.5t73.5 54.5t77 28.5q-12 -37 -17 -44t-15.5 -12.5t-33 -21.5t-71.5 -74q43 4 75.5 15.5t59.5 27t50.5 34t47.5 34.5q0 23 6.5 46.5t13.5 50t14 55t7 61.5q-43 -2 -91 -19.5t-96 -37t-96 -35t-91 -15.5q-20 0 -48 13.5t-28 36.5zM141 545 l13 -23q57 25 101 37t79 20.5t63.5 15.5t57.5 17q18 20 29.5 64t31.5 112q-90 -55 -151.5 -96t-104.5 -69.5t-70.5 -48t-48.5 -29.5zM473 389q20 20 54 47t68 55.5t64.5 59.5t47.5 61l-183 -16q-2 -10 -8 -22.5t-13 -34t-15.5 -57.5t-14.5 -93z" />
<glyph unicode="%" horiz-adv-x="1089" d="M14 -12q0 47 55.5 124.5t140.5 169t185.5 189.5t188.5 184t151.5 154t75.5 100q-43 4 -93 -8t-102.5 -29.5t-105.5 -36t-107 -26.5q-55 -41 -109 -76t-102.5 -61.5t-86 -43t-60.5 -18.5v49q0 6 32 49.5t78 92.5t97 90t90 47q-4 -29 -20.5 -47.5t-36 -34.5t-39 -36.5 t-31.5 -53.5q68 25 99.5 51.5t47 49t25.5 37t33 14.5q16 0 23.5 -13.5t23.5 -13.5q2 0 27.5 7t63.5 17.5t84 22.5t90 22.5t82 17.5t56 7q29 0 43.5 -17.5t14.5 -39.5q0 -16 -7.5 -27.5t-28 -29t-56 -45t-91.5 -78.5q-162 -147 -271 -253t-179 -180.5t-106.5 -121t-53 -76 t-20.5 -45t-9 -27.5q25 6 37.5 13.5t20.5 12.5t18.5 8t34.5 5q-39 -57 -76 -100t-106 -56q-2 4 -11.5 26.5t-9.5 33.5zM496 334q20 49 51 86q27 33 68.5 59.5t101.5 26.5q53 0 69.5 -34t16.5 -73q0 -25 -15.5 -54.5t-45 -56t-74.5 -44t-105 -17.5q-23 0 -36 9.5t-20 24.5 t-9 35t-2 38zM563 295h47q59 37 101.5 62.5t42.5 41.5q0 27 -15.5 34t-21.5 7q-27 0 -54.5 -10t-49 -28.5t-36 -45t-14.5 -61.5z" />
<glyph unicode="&#x26;" horiz-adv-x="1079" d="M18 195q0 16 41 71.5t95.5 121t107.5 126.5t78 92q-23 -10 -43 -12q-16 -2 -30.5 3t-16.5 28q0 8 20.5 45t66.5 86t118.5 103t175.5 97q16 6 24.5 23.5t14.5 36.5q6 22 10 47q6 18 15.5 37.5t18.5 33t16 16.5t7 -11q0 -31 -3 -52.5t-7 -35.5q-6 -16 -10 -27 q0 -4 10 -18.5t10 -28.5q0 -23 -15 -36t-40 -23.5t-56.5 -21.5t-62.5 -28.5t-58.5 -43t-45.5 -66.5q45 4 75.5 17t54 28.5t46 29t53.5 19.5q2 -8 2 -25q0 -8 -2 -14q0 -16 -28.5 -39.5t-71.5 -51.5t-91 -56.5t-87 -57.5q-94 -94 -168 -176q-31 -35 -61.5 -72.5t-53.5 -71.5 t-37 -63.5t-14 -50.5q0 -23 16.5 -26t32.5 -3q14 0 56 11.5t95.5 29t111.5 39t108 43.5q14 25 35.5 39.5t43 21.5t36 12t12.5 11q-10 37 15.5 76t69.5 71.5t94 54t89 21.5q20 0 32.5 -18t12.5 -39q0 -31 -34 -61.5t-83 -59t-103 -56.5t-93 -52q-35 -23 -56.5 -78t-41 -115.5 t-43 -111t-62.5 -62.5q12 55 26.5 91t25.5 64.5t18.5 56.5t7.5 69q-29 -4 -71 -22.5t-91 -39t-103.5 -37t-107.5 -16.5t-80 35t-27 72zM680 383q29 6 64.5 27.5t68.5 45t55.5 43t24.5 21.5q-25 6 -54.5 0t-60 -24.5t-57.5 -47t-41 -65.5z" />
<glyph unicode="'" horiz-adv-x="358" d="M128 818q3 32 12.5 74t22.5 87t30.5 80t37 53t39.5 6l-141 -338q-4 6 -1 38z" />
<glyph unicode="(" horiz-adv-x="688" d="M-6 242q0 35 25.5 97t66.5 138t94 156t110.5 146.5t113 112.5t102.5 54q4 -18 2 -26.5t-2 -22.5q-131 -113 -234 -227q-43 -49 -85 -103.5t-74.5 -110t-52 -110.5t-19.5 -104q0 -55 24.5 -84t63.5 -41.5t86 -14.5t92 -2q37 0 82 7.5t82 12.5t59.5 3t12.5 -23 q-23 -8 -61 -18t-81 -18.5t-86 -14.5t-75 -6q-129 0 -187.5 59.5t-58.5 139.5z" />
<glyph unicode=")" horiz-adv-x="866" d="M-23 -68q4 20 12.5 32.5t32 29t65.5 46.5t112 87q33 27 83 73t107 103t115.5 121.5t104.5 127t76 119t30 97.5q0 63 -74 92t-180 29q-82 0 -126 -10.5t-66.5 -16.5t-33 -1t-26.5 36q96 27 159.5 38t131.5 11q45 0 91 -12t83 -37t60.5 -60.5t23.5 -84.5q0 -27 -12.5 -69 t-48 -99.5t-97 -131t-160.5 -161.5q-10 -8 -39.5 -38t-71.5 -69t-91.5 -82t-97.5 -79.5t-91 -62.5t-72 -28z" />
<glyph unicode="*" d="M45 852q0 41 34 50t75 22q-4 4 -14.5 14t-20.5 21.5t-19.5 20.5t-13.5 9l14 45q6 4 15.5 -3t22 -18.5t24.5 -24.5t24 -21l54 100q23 -6 27.5 -17.5t1.5 -26.5t-10 -34.5t-13 -40.5q8 2 26.5 10.5t38 16.5t35.5 15t23 11l22 -53q0 -10 -11 -16t-29.5 -11.5t-40 -10.5 t-42.5 -11q23 -23 54.5 -49.5t44.5 -42.5q-39 -25 -75 -6.5t-73 53.5q-10 -39 -22.5 -74.5t-22.5 -60.5q-16 10 -22.5 27.5t-6.5 38t4.5 42t8.5 41.5q-10 0 -26.5 -3l-33 -6t-31 -5t-22.5 -2z" />
<glyph unicode="+" d="M31 440q0 45 43 75.5t100 55.5q0 -23 -5 -45t-5 -47q-41 -14 -76 -24.5t-57 -14.5zM147 297q0 41 5.5 88t11.5 94q14 0 28.5 7.5t28.5 13.5q-4 -104 -10.5 -193.5t-24.5 -124.5q-23 12 -31 43t-8 72zM174 571v70l21 182q8 0 19 -20.5t34 -36.5q-8 -39 -15.5 -83t-7.5 -91 q-10 0 -23.5 -7t-27.5 -14zM221 500q0 23 2 46t2 46q33 14 59.5 25.5t47.5 23.5l86 -18q0 -14 -17.5 -29.5t-45 -31t-62.5 -32t-72 -30.5z" />
<glyph unicode="," horiz-adv-x="278" d="M45 -142.5q0 31.5 5 74.5t16.5 89.5t29 81t42 52t55.5 3.5l-142 -338q-6 6 -6 37.5z" />
<glyph unicode="-" d="M49 420q-2 39 24.5 60.5t65.5 33.5t82 22.5t74 28.5l84 -26q0 -23 -38 -41.5t-91 -33.5t-108.5 -25.5t-92.5 -18.5z" />
<glyph unicode="." horiz-adv-x="368" d="M89 -9.5q1 21.5 23.5 46t57.5 43t72 14.5v-39q-4 -8 -18.5 -22.5t-33 -28.5t-39 -24.5t-32.5 -10.5q-31 0 -30 21.5z" />
<glyph unicode="/" horiz-adv-x="995" d="M-92 -152q264 322 481 584q92 113 184.5 223.5t170 203.5t133 160.5t75.5 92.5q20 14 26.5 9t6.5 -16t-3 -22.5t1 -7.5l-920 -1104h50q-14 -92 -156 -192h-49v69z" />
<glyph unicode="0" horiz-adv-x="950" d="M-6 139q20 86 74 189q43 88 122.5 203.5t208.5 244.5q12 12 38 39t55.5 56.5t62.5 58t61.5 45t48 15.5t25.5 -29q-82 -45 -160.5 -116t-151.5 -154t-134.5 -171t-107.5 -167t-71.5 -142.5t-25.5 -95.5q0 -14 17.5 -26.5t43 -20t53 -8.5t48.5 10q14 6 63 22.5t115.5 45 t139.5 71.5t135.5 100.5t102.5 131t40 163.5q0 31 -11.5 60.5t-30 52t-41 37t-44.5 14.5q-61 0 -104.5 -31.5t-77 -84t-58 -117t-46.5 -130t-42 -126t-47 -101.5q-12 -2 -13 9.5t2 31t8 47t5 58.5q47 137 102 245q25 45 52.5 90.5t58.5 79t64.5 55t68.5 21.5 q33 0 66.5 -16.5t61.5 -46t45.5 -72.5t17.5 -96q0 -72 -37 -143.5t-96.5 -135t-135.5 -119t-154.5 -96.5t-154.5 -63.5t-135 -22.5q-72 0 -99.5 42t-27.5 93z" />
<glyph unicode="1" horiz-adv-x="536" d="M25 72q8 45 21 96t34.5 119.5t54.5 165t80 235.5q4 16 16.5 72.5t30 118t40 113.5t50.5 59q10 4 23.5 -11.5t17.5 -27.5q-49 -125 -86 -226q-16 -43 -31.5 -85t-29 -77.5t-22.5 -60t-11 -31.5q-53 -133 -77.5 -217t-33 -133t-7.5 -73.5t0 -37t-12 -22.5t-44 -33z" />
<glyph unicode="2" horiz-adv-x="856" d="M-12 408q0 2 27.5 26.5t78.5 59t121 74.5t154 73t179 53.5t197 14.5q10 -23 13.5 -41.5t1.5 -28.5q-2 -14 -8 -23q-43 -55 -81 -93t-80 -71.5t-90 -70.5t-114 -90t-98.5 -78t-46 -37t-17.5 -18t-12 -25q61 16 129 49t133.5 71t126 77t107.5 69q4 -16 7 -31.5t3 -37.5 q-102 -66 -207 -123q-90 -49 -192.5 -96.5t-194.5 -63.5q-4 14 -2 23.5t2 23.5q0 31 40 75t101.5 94t134 104.5t137 105.5t112.5 97t59 81h-58q-117 0 -218 -44t-183 -97t-143.5 -97t-100.5 -44q-18 0 -18 39z" />
<glyph unicode="3" horiz-adv-x="987" d="M27 -37l4 57q29 8 89 36t136 70t160 94t162.5 106.5t142 110t100.5 102.5q-35 18 -42 18t-21 2q-25 0 -77 -7t-117.5 -20.5t-137.5 -30t-137.5 -31.5t-117.5 -29.5t-77 -20.5v20q12 41 72.5 79t142.5 86t169 110.5t153 154.5h-68q-102 -29 -165.5 -56.5t-101.5 -51 t-56.5 -44t-35 -33.5t-35.5 -21.5t-56 -8.5v60q37 33 111.5 72.5t158.5 72.5t165 55.5t132 22.5q33 0 41 -24.5t8 -32.5q0 -14 -29.5 -44t-74.5 -67t-98.5 -77t-100.5 -73.5t-80 -59t-37 -32.5h60l379 78q41 -10 65.5 -9t38.5 -1t18 -13.5t4 -43.5q0 -35 -29.5 -72 t-71.5 -72t-89 -65.5t-82 -53.5q-59 -39 -135 -90t-153.5 -99t-153.5 -83t-133 -41z" />
<glyph unicode="4" horiz-adv-x="921" d="M-348 -461v-31v31zM8 219q0 29 41 95.5t104.5 150.5t137.5 175t140.5 166t113.5 123t55 48q14 0 24.5 -15.5t14.5 -17.5q-174 -184 -305 -340q-55 -66 -108.5 -132t-93.5 -121.5t-61.5 -96.5t-15.5 -57q4 -8 32 -2t67 20t84 33.5t82.5 37t63.5 30t26 14.5 q39 82 65.5 147.5t47 116.5t38 88t37.5 59l13 -13t7 -17q0 -47 -14 -83t-32.5 -70t-34 -71.5t-17.5 -89.5q27 0 62.5 15.5t71.5 34t69 34t53 15.5q18 0 28.5 -11.5t10.5 -27.5l-17 -17q-18 -18 -43.5 -38.5t-54 -38t-53.5 -17.5q-18 0 -27.5 7t-29.5 5q-57 -8 -87 -28.5 t-45.5 -46t-21.5 -54t-13 -57.5t-21.5 -53.5t-45.5 -38.5q-14 18 -16 39.5t3 42t11 38t6 29.5q-37 -6 -69.5 -22.5t-63 -33.5t-62.5 -29.5t-69 -12.5q-47 0 -67.5 15.5t-20.5 72.5z" />
<glyph unicode="5" horiz-adv-x="790" d="M-313 809v68v-68zM27 311q8 39 33.5 100.5t61.5 137.5t72.5 145.5t66.5 124.5t42 78q16 -12 23.5 -16t8.5 -5.5t0 -4.5t-1 -13q0 -6 -14.5 -30.5t-16.5 -75.5l361 166l34 -41q-33 -31 -78 -50.5t-96 -38t-106.5 -40t-106.5 -52.5q-55 -39 -99 -104.5t-48 -136.5 q27 -6 74 10t103 37.5t120.5 40t130.5 18.5q8 0 24.5 -2t33 -9t27.5 -20.5t11 -35.5q0 -29 -28.5 -77t-74.5 -104.5t-104.5 -113t-119 -102.5t-116 -75.5t-95.5 -29.5q-57 0 -58 59q0 2 7 15.5t19.5 30t29 30.5t34.5 16q0 -27 1 -40t2 -19t2 -8t1 -6q39 4 105.5 46 t134.5 105.5t123 137t72 143.5h-31q-119 -6 -206 -32t-151.5 -59.5t-110.5 -70.5t-85 -64q-20 -4 -12 35z" />
<glyph unicode="6" horiz-adv-x="763" d="M10 174q0 49 16.5 100.5t50.5 121t87 168t127 245.5q25 49 52.5 102.5t58 95.5t63.5 67.5t67 19.5q-133 -201 -237 -379q-45 -76 -87 -155t-75 -150.5t-53.5 -131t-20.5 -96.5q0 -47 21.5 -57t36.5 -10q2 0 18.5 34.5t45 87t69.5 114t90 113.5t107.5 87t121.5 35 q31 0 50.5 -27t19.5 -49q0 -78 -43 -140.5t-103.5 -114.5t-127 -98t-113.5 -89h59q-12 -29 -35.5 -49.5t-52.5 -20.5q-14 4 -28 12q-12 6 -25.5 17.5t-24.5 27.5q-53 4 -94 41t-41 78zM188 139q55 6 123 48t128.5 99.5t103.5 121t47 112.5l-60 4q-76 -33 -128 -66.5 t-91 -76.5t-67.5 -101.5t-55.5 -140.5z" />
<glyph unicode="7" horiz-adv-x="819" d="M51 598q0 6 36 31.5t92.5 60.5t126 73t135 69.5t120.5 52t84 20.5q23 0 38 -17.5t1 -31.5q-12 -12 -49 -56t-85 -105.5t-100.5 -134.5t-95.5 -142.5t-71.5 -131t-28.5 -100.5q0 -29 -19.5 -59.5t-44 -56t-48 -43t-31.5 -21.5q-4 10 -7.5 19.5t-3.5 25.5q0 33 30 94.5 t74 137t97 157.5t100.5 155t81 127t39.5 77q-53 -8 -121.5 -46t-136 -81t-124 -79t-85.5 -42q-2 10 -3 19.5t-1 27.5z" />
<glyph unicode="8" horiz-adv-x="856" d="M10 627q0 18 33 51t83 70.5t110.5 75.5t119 70t105.5 51.5t69 19.5q23 0 31 -27t8 -49q0 -25 -10 -36t-24 -24q-8 20 -10.5 28.5t-1.5 11.5t3 6.5t4 13.5q-18 0 -70 -16.5t-119 -48t-139.5 -79t-131.5 -106.5q16 -10 75.5 -15.5t127 -4t127 9.5t75.5 26 q70 78 135.5 131.5t120.5 88t97 51t69 20.5h57q-12 -37 -57 -60.5t-106.5 -54t-130 -76.5t-125.5 -128q31 -14 54 -24.5t40.5 -21t27 -26.5t9.5 -43q0 -23 -26 -70t-68 -104t-97 -118.5t-113.5 -112t-118 -83t-108.5 -32.5q-16 0 -31.5 33.5t-15.5 62.5q0 4 14.5 45 t48 106.5t91 149.5t145.5 172q-27 0 -64.5 1t-72.5 3q-41 2 -84 4h-45t-51.5 5.5t-42 16.5t-17.5 36zM145 74q72 4 142.5 51t132 113.5t107.5 140.5t71 131q8 20 -4 32.5t-35.5 19.5t-50.5 8t-45 -3q-8 -2 -35 -26.5t-60.5 -64.5t-72.5 -91t-70.5 -105.5t-54.5 -108.5 t-25 -97z" />
<glyph unicode="9" horiz-adv-x="968" d="M16 485q0 59 51.5 131t130 143.5t174 138.5t183.5 119t156.5 82.5t95.5 30.5q16 0 26.5 -25.5t10.5 -70.5q0 -2 -2 -15t-12.5 -38t-32 -60.5t-60.5 -82.5q14 0 31.5 -3.5t28.5 -3.5q4 0 12 2.5t15 2.5t13.5 -7.5t6.5 -25.5t-18.5 -27.5t-47 -22t-62.5 -36t-65 -72.5 q-86 -135 -161.5 -270t-136 -255t-100.5 -218.5t-56 -159.5q14 -4 31.5 -5t27.5 -1q-4 -27 -11 -46.5t-18 -33.5q-10 -16 -22 -29q-12 -20 -39 -18t-47 18q-14 12 5 79t58 161t92.5 205.5t107.5 217t102 191.5t77 129q-23 -6 -62.5 -23.5t-88 -40t-99.5 -47t-98 -45 t-84 -33.5t-55 -13q-58 -1 -58 77zM70 485q100 18 181 48t145.5 63t113.5 61.5t86 44.5q-10 35 -6 55.5t12 30.5t23 15q18 18 37.5 34.5t41 41t45 64.5t48.5 106q-49 2 -118 -23t-144.5 -66.5t-153.5 -100t-142.5 -121t-109.5 -128t-59 -125.5z" />
<glyph unicode=":" d="M31 207q33 2 38 3t12 7t31.5 18.5t94.5 36.5q4 27 0 45.5t-6 28.5l-31 6q-35 -27 -61.5 -39t-45 -22t-26.5 -27.5t-6 -56.5zM49 420q-2 39 10.5 61.5t34 35.5t51 25.5t60.5 30.5l47 -22q0 -23 -18.5 -43.5t-47 -37.5t-64.5 -29.5t-73 -20.5z" />
<glyph unicode=";" horiz-adv-x="475" d="M-14 -174q4 8 25.5 52t46 96.5t44 100.5t19.5 62q0 27 -6 33t-13.5 9t-13.5 8t-6 28q0 16 12 26.5t29.5 15.5t33 6t21.5 1q18 0 24.5 -16.5t6.5 -32.5q0 -10 -10.5 -43t-28.5 -78t-41 -96t-47.5 -97t-50 -83t-45.5 -51v59zM106.5 542.5q6.5 24.5 35 53.5t68.5 51.5 t77 18.5v-41q-4 -8 -23.5 -25.5t-45 -36t-50.5 -32t-37 -13.5q-31 0 -24.5 24.5z" />
<glyph unicode="&#x3c;" horiz-adv-x="772" d="M18 266q-2 4 24 31t69 66.5t98 89t113 100.5q135 119 309 268l10 -20q0 -27 -37 -71t-93 -96t-122.5 -107.5t-126 -105.5t-102.5 -88t-54 -57q49 -4 86 -2t71 6.5t69 8.5t76 4q35 0 68.5 -1t59 -10.5t41 -27.5t15.5 -51q0 -18 -8.5 -18.5t-31 7t-62 16.5t-103.5 9h-53.5 t-49 -1t-53 -1h-67.5q-31 0 -56.5 -2t-44 1t-31 14t-14.5 38z" />
<glyph unicode="=" horiz-adv-x="782" d="M-23.5 238.5q1.5 9.5 5.5 29.5q6 12 35.5 33t74.5 47.5t100.5 56t112.5 58.5q133 68 301 147q23 -23 0.5 -49t-73 -56t-119 -62.5t-140 -68.5t-137 -75t-106.5 -80h-49q-2 0 -5 6q-2 4 -0.5 13.5zM51 492q-27 16 0 44.5t83 61.5t129 66.5t140.5 61.5t116.5 45t60 17 q8 0 18 -10t16.5 -21.5t7.5 -21.5t-8 -10q-47 0 -101 -16.5t-110.5 -41t-110.5 -54t-101.5 -55.5t-84.5 -44t-55 -22z" />
<glyph unicode="&#x3e;" horiz-adv-x="976" d="M-2 14q-4 29 40 84.5t112.5 124t149.5 144t151.5 147.5t118.5 133.5t53 100.5q-6 0 -40 -5.5t-85.5 -11.5t-116 -10t-129.5 -4h-44.5t-31.5 6t-18 20.5t-4 42.5q29 -4 34 -6t9 -3t19 -2t65 -1q43 0 108.5 7t135 16.5t135 17.5t108.5 8q8 0 13 10.5t18 10.5q12 0 17 -14.5 t11 -24.5l-811 -811z" />
<glyph unicode="?" horiz-adv-x="987" d="M33 707q0 4 28.5 31.5t78.5 65.5t119 80t149.5 77.5t169 59t176.5 23.5q37 0 54 -5t25.5 -14t10.5 -24.5t6 -33.5q-152 -143 -272 -258q-51 -49 -100.5 -97.5t-89.5 -88.5t-65.5 -67.5t-27.5 -35.5q27 2 59.5 21.5t63.5 42t59.5 41t46.5 18.5q10 0 19.5 -9.5t9.5 -27.5 q-68 -59 -133 -107q-55 -41 -113.5 -72.5t-99.5 -31.5q-29 0 -31 16.5t-6 40.5q8 18 40 55t77 84.5t100 101.5t111 107q131 127 295 275v12q-18 2 -41 2h-41t-45 -2q-154 -23 -281 -88t-233 -151q-8 -31 -33 -54.5t-47 -52.5q-18 16 -28.5 27.5t-10.5 38.5zM115 -4 q0 39 32.5 76t77.5 64.5t89 44t65 16.5q16 0 12 -16.5t-2 -28.5l-19 -12q-20 -11 -48.5 -28.5t-63.5 -37t-64.5 -37t-52 -29.5t-26.5 -12z" />
<glyph unicode="@" horiz-adv-x="1116" d="M10 137q0 119 43 231.5t113 212t159 181.5t179 140.5t174 91t145 32.5q47 0 80 -25.5t53.5 -65.5t29.5 -87t9 -90v-76q0 -59 -44 -135t-110.5 -143.5t-146.5 -114.5t-149 -47q-31 0 -48.5 32.5t-17.5 73.5q0 18 2 31.5t6 36.5q-14 -6 -34.5 -20.5t-42 -29t-44 -25.5 t-40.5 -11q-10 0 -23.5 19.5t-13.5 35.5q0 2 19.5 36t50 81t69.5 97t78 86t72.5 48t56.5 -18q-70 -49 -121 -99q-23 -23 -42 -45t-33.5 -45.5t-19.5 -47t3 -44.5q51 33 76.5 62.5t42 53t30 42t37.5 29.5q4 -12 4 -26.5v-27.5q0 -23 -12 -47l-25.5 -51t-25.5 -57.5t-12 -63.5 q0 -27 6 -24.5t26 2.5q43 0 109.5 33.5t128 96t105.5 153.5t44 206q0 27 -9 55.5t-25.5 52t-39 39t-51.5 15.5q-2 0 -39.5 -9.5t-95 -29.5t-126 -55t-130.5 -86q-61 -51 -129.5 -121t-126 -154t-95.5 -181t-38 -204q0 -55 34 -74.5t97 -19.5q20 0 33.5 8t34.5 8 q16 0 52 13.5t82 33t97 42t97.5 41t84 30.5t56.5 10q-2 -4 -53.5 -40.5t-131 -79.5t-180 -79t-200.5 -36q-47 0 -75 13t-43.5 34.5t-20.5 47t-5 48.5z" />
<glyph unicode="A" horiz-adv-x="729" d="M-90 250q80 29 156 53q66 23 134 46.5t115 43.5q47 78 74 127t44.5 84t30.5 64.5t33.5 71.5t52.5 102.5t85 156.5q18 -10 26.5 -15t8.5 -26q0 -2 0 0.5t-2 -3t-7.5 -24t-13.5 -63.5q-2 -10 -3 -68.5t-3 -125.5q-2 -80 -4 -178q27 8 44 13t32.5 9t31 6t39.5 4 q0 -41 -44 -60t-103 -34q-10 -55 -17.5 -138t-13.5 -161q-8 -90 -14 -186q-37 29 -43 37q-4 6 -2 8q0 45 4 98t8 108.5t6 107.5q1 26 1 51t-1 49q-53 -12 -100 -25q-41 -10 -79 -22.5t-56 -22.5q-37 -70 -73 -144.5t-71.5 -137t-71.5 -101.5q-33 -35 -63 -35h-6 q-12 2 -5 23.5t26.5 55.5t46 76t54.5 84t50.5 81t32.5 67q-29 -6 -76 -26.5t-95 -42t-86 -38t-48 -16.5q-4 0 -9.5 8.5t-9.5 19.5t-9 22.5t-7 15.5zM391 420q41 10 74 19.5t57 19.5q28 10 53 22q0 53 4.5 113.5t10.5 112.5q6 59 14 118q-23 -47 -58.5 -114.5t-70.5 -132.5 q-41 -76 -84 -158z" />
<glyph unicode="B" horiz-adv-x="804" d="M16 7.5q0 25.5 2 39.5q14 10 28.5 42t25 66.5t16.5 66.5t6 44q0 8 -13 34t-42 48q6 20 27.5 37.5t48 46.5t53.5 79t43 138q-29 -2 -47.5 0t-30.5 6q-16 18 0.5 41t42.5 43q31 23 76 45l78 146q8 -16 14 -33t10 -37q25 0 76 17.5t108.5 39t114 39t92.5 17.5 q10 0 24.5 -20.5t14.5 -41.5q0 -31 -27.5 -68.5t-67.5 -78.5t-83 -81t-71 -77q8 2 36.5 8.5t62.5 12.5t65.5 11t48.5 5q29 0 30.5 -11t1.5 -40q0 -25 -9 -65t-29.5 -87t-52.5 -100t-77 -102q-49 -55 -121.5 -87t-144.5 -51.5t-131 -32t-82 -28.5q-10 -8 -20.5 -30.5 t-20.5 -50.5t-23.5 -53.5t-31.5 -39.5q-8 12 -13.5 36.5t-6.5 52.5t-1 53.5zM125 106q156 18 267.5 71.5t181.5 121.5q71 67 102 139q24 55 24 101q0 13 -2 26q-13 3 -44 3q-16 0 -36 -1q-60 -2 -133 -19.5t-150 -57t-132 -111.5q-16 -72 -40 -139.5t-38 -133.5zM238 502 q51 25 124.5 75t145.5 108t126 115.5t66 98.5q-16 2 -63 -6t-105.5 -27.5t-117 -50.5t-97.5 -74q-35 -41 -50 -104.5t-29 -134.5z" />
<glyph unicode="C" horiz-adv-x="751" d="M2 178q0 68 45 142.5t114.5 145.5t151.5 135.5t155 113.5t126 78.5t65 33.5q8 2 14.5 -7t10.5 -19t7 -20.5t3 -12.5l-9 -20q-9 -19 -25.5 -42.5t-43 -45t-59.5 -25.5q-6 10 -7 26.5t-5 26.5q-14 -4 -57.5 -30.5t-99.5 -66.5t-117.5 -92.5t-113 -107.5t-85 -111.5 t-33.5 -105.5q0 -35 18.5 -57.5t42 -35.5t47 -18.5t33.5 -5.5q41 2 94.5 21.5t110.5 49.5t115.5 66.5t110 72.5t91 68t62.5 52q18 10 28.5 3t4.5 -23q-8 -12 -43 -44t-87.5 -73t-117 -84t-133 -80t-134 -60.5t-118.5 -23.5q-12 0 -40 7t-54.5 27.5t-47 54.5t-20.5 87z" />
<glyph unicode="D" horiz-adv-x="833" d="M-88 647q6 29 54 56.5t118 51t152.5 40t156.5 24.5q35 4 75 5h26q26 0 51 -1q41 -2 86 -4q78 -6 134 -47t56 -115q0 -43 -44 -110.5t-113.5 -145t-155.5 -155.5t-171 -138.5t-159 -97.5q-62 -31 -104 -31q-8 0 -15 1q-10 2 -23 18t-13 33q0 8 13 16t29.5 16.5t31 16.5 t16.5 18q4 35 17 97.5t34.5 146.5t54.5 186.5t78 216.5q-16 2 -53 -5t-83 -22.5t-97.5 -38t-98.5 -50.5q-16 -6 -26.5 -3t-16.5 7q-8 6 -10 14zM184 115q23 -4 51.5 7t32.5 11q20 0 65.5 34t102 87t116.5 116.5t110 125.5q48 61 80 110q30 46 30 69q0 35 -45 59 q-43 22 -105 33q-57 10 -123 10h-12q-72 -1 -129 -15q-41 -111 -71 -207q-27 -82 -48.5 -161t-21.5 -111q0 -10 5 -10.5t11.5 0.5t11.5 -1t5 -14q0 -16 -9.5 -34.5t-21.5 -37t-22.5 -37t-12.5 -34.5z" />
<glyph unicode="E" horiz-adv-x="714" d="M-54.5 -43.5q5.5 20.5 28 42t56 44.5t68.5 41q12 37 23 78q10 35 21.5 78t25.5 88q-18 -4 -30.5 -11.5t-25 -14.5t-28.5 -12t-41 -1q6 8 10 28.5t17 30.5q20 18 50 34.5t75 39.5q10 43 33.5 112.5t41.5 143.5q-14 -6 -42.5 -16.5t-61.5 -21.5t-63.5 -19.5t-49.5 -12.5v62 q16 4 60.5 17t103.5 31.5t125 38t125 38t104 31t62 16.5q14 2 18 -1t3 -11.5t-4 -17.5t1 -17q-18 -10 -57 -21.5t-83 -24t-89 -25.5t-78 -30q-14 -47 -27 -92q-10 -39 -23 -81t-24 -72q96 33 167 58t121 43.5t84 31t56 18.5q12 -2 11.5 -22.5t9.5 -34.5q-43 -18 -102.5 -38 t-125 -43.5t-130 -49t-117.5 -54.5q-12 -43 -23 -84q-10 -35 -21.5 -75.5t-21.5 -75.5l234 90q43 16 86 32.5t75.5 29t52.5 19.5l21 7q10 -2 17 -8q4 -6 4 -16.5t-13 -26.5q-61 -33 -121.5 -57.5t-120 -47t-120 -47t-121.5 -57.5q-6 -23 -13 -47.5t-13.5 -44t-13.5 -32.5 t-13 -13q-8 4 -15.5 15t-13.5 23.5t-11 21.5l-5 9q-4 0 -34 -20.5t-77 -30.5q-23 14 -17.5 34.5z" />
<glyph unicode="F" horiz-adv-x="681" d="M-82 289q4 33 43 52t88 33.5t98.5 25t77.5 24.5l9 24q8 23 20 58t25.5 77t25.5 79.5t21.5 67.5t11.5 42q-135 -45 -197 -63q-37 -10 -59 -17q-35 18 -29 32.5t36 28t75 27t92 29.5q31 10 88 24.5t116.5 29t109 27.5t65.5 23q8 6 15 1t11.5 -14t7.5 -19.5t5 -14.5 q-10 -4 -36 -12t-61.5 -18.5t-78.5 -21.5t-86 -23l-111 -345l377 97l8 -39q-31 -23 -79 -37t-104.5 -26.5t-115.5 -29t-111 -44.5q-10 -4 -22 -40t-25.5 -83t-29 -95.5t-29.5 -76.5q-4 -8 3 -5t17.5 7t19.5 5t9 -7q0 -29 -8 -58.5t-21.5 -52t-29 -37t-29.5 -14.5 q-18 0 -33.5 12t-15.5 47t14.5 87.5t34 106.5t37.5 105t27 86q-37 -2 -70 -15t-65.5 -26.5t-67.5 -22.5q-19 -5 -38 -5q-18 0 -36 4z" />
<glyph unicode="G" horiz-adv-x="886" d="M14 78v6q0 40 22 100q25 64 66 137.5t96.5 151t114.5 145.5q25 29 88.5 83.5t144.5 108.5t168 97t160 49l21 -32q-72 -29 -146.5 -65t-145.5 -78t-134 -89t-113 -96q-55 -55 -111.5 -137t-97.5 -163t-63 -146q-13 -41 -13 -65q0 -14 5 -22q6 -12 42 -7t87 20.5t111.5 39 t118 49t103.5 49.5t70 40q25 35 34 70.5t28 95.5q-80 -29 -127 -50.5t-97 -31.5q-23 -6 -25.5 8t-2.5 33l487 168q23 -20 29 -47q-12 -6 -41 -14.5t-60.5 -16.5t-59.5 -17.5t-38 -17.5q-10 -27 -24.5 -72t-30.5 -98t-33.5 -108.5t-34 -103.5t-32 -83t-25.5 -47 q-23 18 -26 22.5t-5 24.5q-2 25 -2 41.5t2 25.5q4 17 13.5 29.5t20.5 31t22 69.5q-18 -4 -76 -32t-130.5 -59.5t-148 -57t-131.5 -25.5q-27 0 -42 8t-23.5 21.5t-11.5 29t-3 27.5z" />
<glyph unicode="H" horiz-adv-x="833" d="M-111 225q0 20 44 45t98.5 46.5t100.5 38t50 20.5q6 4 19.5 37.5t33 83t41 105.5t43 107.5t41 90.5t33.5 51q18 -18 19 -41q0 -25 -19.5 -73t-44 -104.5t-48.5 -113.5t-34 -98q14 2 69.5 15.5t115.5 29.5q70 18 155 43q2 12 15.5 52t33 93.5t42 112.5t42 113.5t35 96.5 t21.5 58q18 -4 26 -14t10.5 -23.5t1 -28t-3.5 -22.5q-23 -98 -42 -150.5t-37.5 -89t-35 -73.5t-32.5 -105q35 -6 61.5 4.5t61.5 10.5q4 -2 12 -2q14 0 45 8q14 -25 23 -47q-33 -14 -66 -20.5t-62.5 -10.5t-57 -8t-50.5 -14q-25 -53 -47 -133t-39.5 -157t-30 -136.5 t-18.5 -73.5q-16 10 -38.5 37.5t-22.5 58.5q6 4 14 12q4 8 9 19.5t5 34.5q0 2 2 4t11.5 27.5t28 90t48.5 191.5q-2 0 -37.5 -9t-88 -22.5t-108.5 -29t-99 -25.5q-6 -4 -15.5 -22.5t-17.5 -41t-15.5 -46t-9.5 -38.5q25 2 35 4.5t16.5 7.5t13.5 13t25 25q-12 -43 -26.5 -70 t-28.5 -45.5t-30.5 -32.5t-30.5 -33h-48q-10 35 -7 63t12.5 53.5t19.5 52t16 63.5q-66 -14 -97.5 -33.5t-48.5 -38t-31.5 -31t-41.5 -12.5q-25 0 -32 16.5t-7 32.5z" />
<glyph unicode="I" horiz-adv-x="372" d="M29 7q-2 5 0 14.5t2 31.5q0 18 13 69.5t35.5 121t50.5 152.5t58.5 166t59 158t53.5 130q4 8 12 29q4 8 6 18q23 -10 30 -11t9 -4t2 -13.5t9 -39.5l-213 -518l18 -10q10 4 25.5 22.5t31.5 22.5v-6q1 -35 -21 -84q-24 -53 -53.5 -105.5t-56 -96.5t-28.5 -66q-23 8 -32 11 t-11 8z" />
<glyph unicode="J" horiz-adv-x="604" d="M-129 174q0 23 26.5 34t39.5 11q4 0 16 2t24.5 0t22.5 -11t12 -34q2 -16 -10 -24.5t-29 -14.5q8 -6 27.5 -15t42.5 -18.5t45.5 -15.5t38.5 -6q35 0 70.5 30.5t71.5 97t72 173t73 260.5q-41 -2 -62.5 -11t-33 -20.5t-18.5 -19.5t-19 -8t-26.5 25t-14.5 48q0 12 30.5 25.5 t77.5 26t101.5 26t102.5 24.5t81 21.5t37 18.5q6 14 16 10t20.5 -17.5t18.5 -34t8 -38.5q-113 -23 -189.5 -32t-121.5 -32q10 -14 24.5 -27.5t26.5 -23.5q-20 -33 -38.5 -89t-38 -120.5t-43 -132t-53.5 -122t-67.5 -89.5t-85.5 -35q-23 0 -68.5 10.5t-91.5 31t-81 50 t-35 66.5z" />
<glyph unicode="K" horiz-adv-x="745" d="M10 23q88 180 156 337q29 68 57.5 136.5t51 131t36 113.5t13.5 84q0 6 5 7.5t12 -1t16.5 -5.5t15.5 -1q-2 -59 -15.5 -114.5t-32 -107.5t-39 -101t-38.5 -99q63 37 115.5 81t104.5 94.5t107.5 104.5t126.5 114q12 -10 24.5 -17.5t8.5 -21.5q-6 -27 -53 -76t-118.5 -110.5 t-160 -130t-174.5 -132.5q2 -2 46 -15t100.5 -29.5t113 -30t80.5 -15.5q2 0 14.5 -1t29 -1t31.5 -1t24 -1q8 0 16 2t15.5 1t12.5 -10t5 -34q0 -16 -16.5 -22.5t-32.5 -4.5q-86 8 -132.5 16.5t-58.5 10.5q-59 8 -103 21.5t-79 25.5t-62.5 21.5t-52.5 9.5q-10 0 -16 -12.5 t-13.5 -33t-17.5 -50t-29 -62.5q20 -6 25.5 -9t6.5 -2t4 3t22 4q-23 -76 -56.5 -105.5t-95.5 -37.5v76z" />
<glyph unicode="L" horiz-adv-x="688" d="M-346 -522v-21v21zM10 57q0 12 7.5 35t17.5 52.5t24.5 63.5t30.5 68q37 81 82 173q31 88 51.5 149t35.5 95t26.5 42t27.5 -8q6 -16 7.5 -24.5t0 -11.5t-4.5 -5t-3 -8q0 -72 -29.5 -140.5t-69.5 -141t-80 -151.5t-60 -167q45 6 101 27.5t114.5 49t117 58.5t108.5 56.5 t88 41t59 13.5v-72l-603 -270q-18 10 -33.5 27.5t-15.5 47.5z" />
<glyph unicode="M" horiz-adv-x="841" d="M-10 98v68q27 45 58.5 108.5t63 131t63.5 133t59.5 113.5t49 74t35.5 13q1 -10 3 -47q1 -22 1 -50v-39q-1 -52 -3 -111.5t-1.5 -111.5t2 -92t3.5 -52h3q35 0 75 38q42 40 86 103t86 138t78 141.5t61.5 114.5t36.5 58q25 -6 33 -23.5t8 -37.5t-3.5 -39.5t-3.5 -26.5 q-6 -152 -15 -236.5t-18.5 -135.5t-16.5 -86t-11 -84q-2 -23 3 -30t11 -9t12.5 -5t6.5 -18q0 -14 -3 -32.5t-12.5 -36t-24 -30.5t-36.5 -17q-6 16 -13.5 33.5t-7.5 25.5q0 59 8.5 101t8.5 102l47 407q-10 -20 -35.5 -65t-60.5 -102.5t-75 -119t-80 -111.5t-78 -83t-64 -33 q-23 0 -35 13.5t-18.5 35t-8.5 49t-2 54.5l6 235q-20 -12 -39.5 -48t-42 -83t-45 -98t-48 -94t-52.5 -72t-55 -31z" />
<glyph unicode="N" horiz-adv-x="768" d="M14 33l19 35q14 27 41.5 81t77.5 152q61 125 89.5 195.5t40 109.5t15.5 58.5t20 42.5q31 -8 42.5 -23.5t11.5 -36.5q-10 -2 -19 -43q-8 -37 -13 -120t-5 -240q0 -8 1 -26.5t4 -38t8 -34t13 -16.5q2 0 25 13.5t68 76t109.5 190.5t148.5 355q12 4 19 7t11 1t6.5 -12 t8.5 -35q2 -4 -7.5 -26.5t-15.5 -51.5q-4 -16 -3 -34.5t1 -37.5q-6 -6 -16 -7t-21 -13q-16 -23 -31.5 -54.5t-33 -69.5t-37 -77t-39.5 -71q-16 -27 -40 -68t-49.5 -79t-54 -65.5t-57.5 -27.5q-10 0 -23.5 8t-24.5 31.5t-17 67.5q-4 27 -4 64q0 25 2 54l-9 170 q-23 -41 -43 -96t-44.5 -114.5t-58.5 -119t-83 -108.5q-4 8 -18.5 17.5t-14.5 15.5z" />
<glyph unicode="O" horiz-adv-x="647" d="M10 180v6q0 40 24 110q26 75 67.5 161t93 171t99.5 146.5t88 85.5q16 10 30 11q19 0 30 -21q-109 -137 -192 -264q-37 -55 -71 -113.5t-61.5 -114t-44 -106.5t-16.5 -90q0 -31 17.5 -63.5t50.5 -32.5q6 0 59.5 22.5t123 85t143 174t122.5 289.5q6 25 10.5 54.5t8.5 58.5 q4 33 4 65q-49 -10 -94 -54t-86 -105.5t-76 -131t-62.5 -133t-48 -111t-28.5 -61.5q-6 14 -10.5 17.5t-5.5 4.5t-1 4v19q0 43 22.5 107.5t58.5 134t82 139.5t91 124t87 89t71 35q20 0 29.5 -20.5t11.5 -45t0 -46t-2 -23.5q0 -74 -22.5 -159t-61.5 -170t-90 -163t-106.5 -137 t-113 -95t-108.5 -36q-35 0 -57.5 17.5t-37.5 44t-21.5 59.5t-6.5 61z" />
<glyph unicode="P" horiz-adv-x="827" d="M-138 596q1 10 1 16q0 39 32.5 84t107.5 86t196 76t299 53h63q25 0 45.5 1t22.5 1q43 0 89 -3t83 -16t61 -43q22 -28 21 -75v-8q-2 -45 -50.5 -102.5t-118 -113.5t-148.5 -105.5t-140 -77.5q-96 -43 -164.5 -87t-93.5 -57q-18 -43 -20 -78.5t-4.5 -63.5t-16.5 -46.5 t-59 -26.5q-6 12 -11 23q-10 16 -10 24q12 35 23 66q10 27 17 49.5t7 32.5q0 16 -13 24.5t-13 24.5q-6 20 0 35q4 12 16 22.5t41 5.5q37 74 90 191t133 319q-80 -20 -147 -41q-59 -18 -116.5 -38.5t-86.5 -38.5q-37 -23 -48 -50.5t-16.5 -50t-11.5 -38t-31 -15.5 q-14 0 -20 6t-8 15.5t-1 19.5zM205 315q125 47 238.5 120t200.5 145.5t138.5 129t51.5 68.5q0 18 -8.5 28.5t-21.5 17.5t-31 13.5t-36 16.5q-59 6 -119 6q-51 0 -109 -4t-108 -18v-5q-1 -33 -23 -95q-24 -66 -57.5 -142t-67.5 -151.5t-48 -129.5z" />
<glyph unicode="Q" horiz-adv-x="811" d="M10 162v7q0 63 32 135q34 75 86 151.5t117.5 146.5t129 124t117 87t81.5 33q29 0 30 -27.5t-30 -50.5q102 -23 147.5 -63.5t45.5 -139.5q0 -39 -17.5 -79t-37 -73.5t-37 -58t-17.5 -32.5q0 -10 26 -14.5t57.5 -13.5t57 -31.5t25.5 -69.5q-23 -2 -50.5 7t-59 20 t-65.5 20.5t-64 9.5q-68 -68 -140 -121q-61 -47 -139 -84t-158 -37q-35 0 -60.5 14.5t-42.5 37t-25.5 49t-8.5 53.5zM59 154q0 -39 34 -59.5t73 -20.5q47 0 101.5 26.5t99.5 59.5q53 37 102 86q-37 6 -78 8t-73.5 7t-51 17.5t-6.5 43.5q2 6 34 7h23q23 0 52 -1 q43 -2 88 -6.5t75 -4.5q33 0 67 27t60.5 67t43 87t16.5 88q0 37 -18.5 72.5t-77.5 39.5h-8q-49 0 -95 -24q-51 -25 -96 -64t-83 -82t-65.5 -73.5t-43 -42t-15.5 15.5q0 53 46 105.5t107.5 98.5t119 83t77.5 57q-55 -12 -114.5 -52t-115.5 -96.5t-106.5 -124t-88.5 -132 t-60.5 -122t-22.5 -91.5z" />
<glyph unicode="R" horiz-adv-x="804" d="M-10 195q0 27 7 35t20.5 13t31 13t37.5 33q27 63 45.5 104t34.5 79t31.5 81t38.5 113q-20 2 -36 3t-38 1v71q80 16 106.5 36t32.5 36t7 30.5t32 20.5q23 -23 33 -43t26 -20q68 16 133 30q55 12 117 22.5t109 10.5q10 0 28.5 -3t37 -11t32.5 -21.5t14 -33.5 q0 -25 -56 -87.5t-146 -138t-202 -152.5t-224 -130q63 -23 126.5 -50.5t115 -58.5t84 -62.5t32.5 -62.5v-16t-2 1t-5 8t-11 5q-20 0 -54 27.5t-84 59.5t-114 56q-52 20 -114 20q-15 0 -32 -1q-37 -4 -52 -33.5t-24.5 -67.5t-21.5 -73t-43 -49q-16 2 -20.5 16t-2 33.5t6.5 43 t4 44.5q0 16 -6.5 20.5t-14.5 7.5t-14 10t-6 30zM178 319q33 4 88.5 36t119 77t130 99.5t122.5 104.5t96 92.5t52 62.5q-22 10 -64 11h-13q-37 0 -79 -5q-50 -6 -103.5 -17.5t-96.5 -23t-71.5 -21.5t-30.5 -14q-31 -72 -47.5 -116t-28.5 -84t-27.5 -85t-46.5 -117z" />
<glyph unicode="S" horiz-adv-x="745" d="M16 334q0 53 45 115.5t116 124t156 119t163.5 101.5t141 70.5t87.5 26.5q12 0 20.5 -13.5t8.5 -35.5q0 -6 -21.5 -23.5t-49.5 -36t-55.5 -33t-37.5 -14.5t-13.5 10.5t-13.5 10.5q-119 -53 -217 -117q-43 -29 -85 -60.5t-80 -68.5t-67.5 -77t-43.5 -83q-6 -12 5 -22.5 t26.5 -16.5t30.5 -9t20 -3q37 0 141 25.5t317 81.5q18 8 35 10q33 4 41 -25q2 -12 -20.5 -30.5t-59.5 -42t-81 -50t-81.5 -56.5t-63.5 -59.5t-26 -58.5q0 -4 -26.5 -31.5t-57 -49t-54.5 -21.5q-20 0 -20 40q0 7 1 15q2 23 39.5 61.5t82.5 79.5q53 47 119 99l-18 10 q-51 -4 -84 -11t-60.5 -16.5t-58.5 -15.5t-76 -6q-37 0 -60.5 2t-37.5 11t-20.5 26.5t-6.5 46.5z" />
<glyph unicode="T" horiz-adv-x="663" d="M-164 502q-18 25 4.5 46t62.5 39.5t82.5 33t67.5 24.5q45 18 114 40t145.5 42.5t155.5 39.5t144.5 33.5t112.5 24t59 9.5q6 0 10.5 -6.5t4.5 -14.5t-4 -15t-11 -10q-37 -10 -81 -28.5t-82 -34.5q-45 -20 -89 -43q-4 0 -4 4v10t-2 12.5t-12 12.5q-8 4 -19.5 -4t-21.5 -4 q-2 -25 -14.5 -52.5t-31.5 -66.5t-45 -95.5t-54 -142.5q-41 -121 -70 -194.5t-50.5 -111.5t-37.5 -50t-33 -10q-4 8 0 12t4 14q0 59 27 150.5t62.5 185.5t71.5 178t52 134q-20 2 -63 -9.5t-98.5 -30t-115 -40t-110.5 -41t-87 -31.5t-44 -10z" />
<glyph unicode="U" horiz-adv-x="706" d="M0 61v10q0 41 14 95q16 62 41 128t54.5 133t59.5 123t54.5 97t36.5 53q8 8 24.5 4t29 -15t15.5 -28.5t-12 -33.5q-35 -12 -62.5 -49t-57 -99.5t-64.5 -150.5t-80 -205l4 -51q66 16 128.5 60t122 102.5t115.5 125t107 125.5q41 63 66 125t39 97q29 29 45 15.5t14 -44.5 q-10 -14 -25.5 -50t-34 -86t-40 -109.5t-41.5 -119.5q-49 -141 -102 -309q-23 6 -35.5 15.5t-12.5 31.5q0 31 12.5 69t27 74.5t26.5 70.5t12 54q-4 -2 -31.5 -26.5t-68.5 -61t-88 -79.5t-91 -80t-79 -61.5t-47 -24.5q-18 0 -47 23.5t-29 51.5z" />
<glyph unicode="V" horiz-adv-x="573" d="M31 131v375q6 66 14 108q8 37 17.5 54.5t21.5 -17.5q6 -10 10 -36.5t6 -64.5q1 -25 1 -54v-29q-1 -45 -3 -90q-6 -106 -16 -236q49 66 104.5 155t111.5 178t114.5 168t115.5 126q8 6 20.5 19.5t24 20.5t19.5 0t6 -46l-16 -17q-8 -10 -19.5 -22t-21.5 -33 q-43 -41 -92.5 -110.5t-98.5 -147.5t-95 -157.5t-83 -142t-61.5 -99.5t-30.5 -31q-16 10 -26.5 15.5t-15.5 16.5t-6 32.5t-1 64.5z" />
<glyph unicode="W" horiz-adv-x="915" d="M8 131q0 2 10.5 42t26.5 101.5t38.5 136t48.5 146.5t52.5 131.5t53.5 87.5q14 -4 24 -10q10 -4 16.5 -10t2.5 -11q-16 -27 -45 -102.5t-57.5 -168.5t-55.5 -187t-41 -158q96 76 155.5 160t97.5 158.5t62.5 133t53.5 85.5q12 12 22 12t16.5 -6t8.5 -14.5t2 -10.5 q-12 -29 -13.5 -44t0.5 -48t6.5 -97.5t4.5 -189.5q0 -31 -2 -51t-2 -35.5t3 -33t13 -42.5q43 57 89 148.5t88 186t77 176t53 122.5q2 4 -11 23.5t-13 54.5q0 14 12 34.5t30.5 39t39 32t36.5 13.5q27 0 33 -20.5t6 -38.5q0 -4 -57 -129t-180 -373q-23 -45 -43.5 -107.5 t-45 -119t-55 -96.5t-69.5 -40q-29 0 -43.5 42t-16.5 85l-14 334q-31 -27 -54.5 -74t-59.5 -105t-90 -124t-146 -127q-16 -12 -31 -8q-12 4 -22.5 23.5t-14.5 72.5z" />
<glyph unicode="X" horiz-adv-x="692" d="M-78 35l385 502q-45 68 -76.5 103.5t-52 56t-30 32.5t-9.5 35q0 47 21.5 37t52.5 -48t66.5 -90.5t64.5 -87.5q43 33 85 78t89 94.5t101.5 99.5t121.5 93q20 -16 23.5 -30.5t3.5 -49.5q-8 2 -18 -2t-23.5 -10t-32.5 -19q-47 -33 -128 -110.5t-191 -202.5l106 -211 q8 -4 14.5 -12t12.5 -17l12 -20q0 -39 -16.5 -69.5t-22.5 -34.5q-25 25 -36 64.5t-23 84.5t-30.5 89t-55.5 79q-80 -88 -133 -147.5t-86 -112.5q-33 -55 -50.5 -97t-30.5 -70t-29.5 -41t-47.5 -13q-8 0 -20.5 11t-16.5 36z" />
<glyph unicode="Y" horiz-adv-x="610" d="M-32 -114.5q1 8.5 1 26.5q0 4 16.5 28.5t42 58.5t55.5 75t55.5 76.5t42 62.5t16.5 35q-45 78 -82 155q-33 66 -64 140.5t-41 138.5l13 70q25 0 35 -10.5t13 -28t4 -40t9 -48.5q8 -31 21.5 -68t34 -76t50 -77.5t72.5 -73.5q92 158 168 284q33 53 64.5 105.5t59.5 93.5 t47.5 67.5t27.5 30.5q23 -8 31 -22.5t8 -36.5q-76 -121 -140 -219q-27 -43 -53 -84t-50 -76t-39 -60.5t-21 -33.5q-82 -133 -135.5 -211t-84.5 -137q-23 -41 -37 -69t-29.5 -47t-33.5 -33.5t-49 -26.5q-14 8 -20.5 11t-7.5 7t0 12.5z" />
<glyph unicode="Z" horiz-adv-x="796" d="M-33 31q0 16 29 60t76 103.5t107.5 130t123.5 142.5q147 168 338 371q-53 -18 -119.5 -41t-136.5 -49.5t-134.5 -57.5t-113.5 -67q-18 4 -28 12q-10 6 -15.5 13.5t4.5 17.5q49 49 144.5 95t199 83t193.5 60.5t127 27.5q4 -14 20.5 -14t22.5 -11q-47 -59 -93 -95t-87 -83 q-104 -115 -199.5 -221.5t-170.5 -194.5t-125 -154.5t-64 -103.5q111 63 228.5 122t217.5 104q117 53 229 98l26.5 -26.5t10.5 -35.5q-170 -72 -285.5 -125t-191.5 -89.5t-121 -60.5t-73.5 -37t-51 -18t-51.5 -5q-10 0 -23.5 16t-13.5 33z" />
<glyph unicode="a" horiz-adv-x="581" d="M23 195q4 53 42 129t140 168q121 109 207 134q36 10 62 10q36 0 52 -20q-164 -78 -265 -164.5t-148 -163.5q-45 -74 -45 -130q0 -61 45 -78q2 -1 4 -1q16 0 61 34q51 39 113.5 105.5t124 151.5t98.5 173q2 8 10 3t17.5 -14.5t15.5 -18.5t6 -11q-33 -86 -57.5 -135.5 t-44 -78t-35.5 -44t-29.5 -32.5t-26 -43t-24.5 -77q20 4 33 2q10 -2 13 -10t-13 -31q-10 -14 -31.5 -33.5t-48.5 -19.5t-34 24.5t-15 47.5q-27 -8 -44.5 -18.5t-31.5 -19.5t-28.5 -16.5t-32.5 -7.5q-14 0 -41 18.5t-27 51.5q-23 41 -23 91q0 12 1 24z" />
<glyph unicode="b" horiz-adv-x="641" d="M16 57l455 1014q10 -6 21.5 -16.5t15.5 -30.5l-287 -623l35 -10q14 12 57 37t93.5 49.5t100.5 43t79 18.5q27 0 45 -14.5t18 -45.5q0 -2 -3 -23.5t-20.5 -58.5t-51 -85t-94 -101t-154 -109.5t-226.5 -109.5h-69q4 10 -3.5 32.5t-11.5 32.5zM127 215l51 -57 q29 -10 29 -25.5t-27 -52.5q43 25 98.5 51.5t113 70.5t112.5 110.5t100 170.5q-47 -6 -118.5 -27.5t-144.5 -56t-132 -82t-82 -102.5z" />
<glyph unicode="c" horiz-adv-x="632" d="M20 125q6 45 47.5 112.5t111 135t162.5 127t206 92.5q16 -29 6 -46.5t-32.5 -28.5t-51.5 -21.5t-49 -22.5q-98 -68 -174 -135q-33 -29 -63.5 -59.5t-53.5 -61.5t-37 -59.5t-12 -53.5q20 -6 41 0q49 12 109.5 45t122 72t120.5 78t107 66q33 18 45 14t20 -21 q-14 -18 -54 -50t-94.5 -69.5t-116 -76.5t-116.5 -71t-99 -52.5t-65 -20.5q-18 0 -33.5 12.5t-26.5 29t-16.5 35t-3.5 30.5z" />
<glyph unicode="d" horiz-adv-x="663" d="M2 84q0 57 29.5 112.5t74 103.5t97.5 89t101 70.5t84 46t44 16.5q18 0 34.5 -11t31 -25.5t25 -29t18.5 -20.5q74 223 137 402q27 76 53.5 150.5t49 134t40 99.5t23.5 48q23 0 30 -10.5t6.5 -20.5t-4.5 -17.5t-2 -2.5q-2 -4 -20 -56.5t-48 -136.5t-68 -190.5t-76 -217.5 q-92 -260 -210 -585q-25 10 -35.5 14t-12 11.5t3 25.5t10.5 57q-45 -23 -92 -51.5t-91.5 -54t-84 -43t-70.5 -17.5q-53 0 -65.5 29t-12.5 80zM57 61q27 -10 48.5 -17t44.5 9q55 39 113.5 70t107.5 59.5t79.5 60t30.5 74.5q0 59 -13.5 97.5t-31.5 38.5q-35 0 -95 -34 t-121.5 -89.5t-109 -125t-53.5 -143.5z" />
<glyph unicode="e" horiz-adv-x="641" d="M0 195.5q-6 13.5 0 24.5t43 13q29 63 85 139.5t127 142t147.5 108.5t148.5 43q55 0 71.5 -28t16.5 -69q0 -49 -32 -98t-82 -94t-112.5 -84t-125 -68.5t-116.5 -47t-89 -19.5q-25 -16 -24 -38t1 -32q0 -16 27 -32.5t45 -16.5q55 0 119.5 27.5t129 65.5t123 77t97.5 61 q16 10 18.5 -1t10.5 -9q-16 -31 -70.5 -79t-125.5 -92t-147.5 -76.5t-140.5 -32.5q-47 0 -77.5 17t-46 44t-16.5 54.5t15 49.5q6 8 -4 22.5t-16 28zM127 248q8 -2 18 -2q26 0 60 12q47 16 98 45t102.5 66t92.5 74.5t66.5 71.5t25.5 56q0 35 -16.5 41t-30.5 6 q-70 0 -142.5 -45t-133 -105t-99.5 -122.5t-41 -97.5z" />
<glyph unicode="f" horiz-adv-x="409" d="M-98 -459q0 53 14 124t35.5 146.5t47.5 152.5t51.5 142.5t46 115.5t30.5 73q47 137 92 248q18 47 39 93t40 83t35.5 63.5t28.5 32.5q0 -6 6.5 -4t12.5 1t8 -9t-4 -35q-27 -78 -93.5 -215t-137.5 -322q23 10 38 15.5t25 9.5q12 2 21 2q66 0 80 -35t14 -96 q0 -20 -15.5 -76.5t-42 -131.5t-62.5 -155.5t-79 -148.5t-90 -112t-94 -44q-16 0 -31.5 28t-15.5 54zM-55 -437.5q-4 -31.5 4 -33.5q9 -4 18 -4q21 0 43 19q33 26 67 76t65.5 116.5t58.5 134.5q20 51 35.5 99t25.5 85q12 43 21 82q0 18 -10.5 28.5t-16.5 20.5 q-39 0 -60.5 -10t-35 -27.5t-21.5 -41t-20 -54.5q4 -2 14 -4t18.5 -7t13.5 -12t1 -20q-10 -23 -39 -35q-13 -6 -28 -6q-17 0 -36 8q-4 -12 -17 -47.5t-28.5 -85t-31 -103.5t-26.5 -100.5t-15 -78z" />
<glyph unicode="g" horiz-adv-x="624" d="M-129 -496v11q0 84 29 158q30 79 79.5 145.5t111 120t119.5 93.5t109.5 66.5t79.5 40.5q23 18 23 29.5t-6 32.5q-115 -59 -177.5 -96t-95 -57.5t-47 -27t-33.5 -6.5q-20 0 -38.5 19.5t-18.5 48.5q0 23 27.5 67t72 98t100.5 110.5t113.5 103.5t110.5 76.5t92 29.5 q10 0 24.5 -13t28 -33.5t22.5 -42t9 -36.5q0 -4 -13 -14t-31.5 -36.5t-38 -72t-31.5 -114.5l57 10q18 2 52 16.5t73 31t76.5 32.5t67.5 23.5t47.5 2t11.5 -29.5q-35 -23 -99.5 -46.5t-130 -46t-119 -43t-65.5 -36.5q-16 -20 -26.5 -81t-26 -141.5t-41 -169.5t-69.5 -168 t-113.5 -136.5t-172.5 -73.5q-11 -2 -21 -2q-44 0 -78 36q-42 44 -44 121zM-86 -475q0 -6 2 -25.5t10 -41t26.5 -38t53.5 -16.5q82 0 140.5 43t98.5 109.5t64.5 147.5t40 157t25.5 136t22 87q-76 -20 -160.5 -79.5t-156.5 -138.5t-119 -169t-47 -172zM61 76q33 2 82.5 26.5 t101.5 64.5t104 88t92 95t63 90q21 37 21 62q0 4 -1 8q-39 -2 -91 -35t-108.5 -80t-108.5 -101t-91 -101.5t-57.5 -80t-6.5 -36.5z" />
<glyph unicode="h" horiz-adv-x="528" d="M-4 -4l455 1089q18 -8 27 -8t12.5 -3t4.5 -12t5 -34l-281 -647q31 4 54.5 18.5t44 29.5t40 26.5t43.5 11.5q20 0 45 -29.5t25 -103.5q0 -23 -5 -47.5t-10 -46t-10.5 -38t-5.5 -24.5q0 -18 15.5 -24.5t15.5 -22.5q0 -2 -6 -12t-16.5 -22.5t-22.5 -23t-25 -10.5 q-29 0 -32.5 10.5t-3.5 39.5q0 25 7 42t16 40.5t17.5 57.5t8.5 89q0 10 -5.5 19.5t-9.5 23.5q-66 -12 -114.5 -60.5t-87.5 -110.5t-68 -124.5t-53 -101.5q-22 -39 -42 -43h-3q-18 0 -35 51z" />
<glyph unicode="i" horiz-adv-x="372" d="M17 34q-3 9 1 13q10 10 31 55t45.5 105.5t52 130.5t53 131t46 107.5t30.5 60.5q25 -2 36.5 -8t4.5 -25q-14 -35 -35.5 -88t-46 -115.5t-50 -133t-50.5 -142.5q23 -10 31 -9t8 -24q0 -16 -16.5 -34.5t-39 -35t-45 -28.5t-32.5 -14l-7 14t-9.5 20.5t-7.5 19.5zM272 870 q0 4 16.5 11t37 7.5t39 -7t20.5 -29.5q-18 -14 -47 -28.5t-39 -14.5q-8 0 -17.5 16t-9.5 45z" />
<glyph unicode="j" horiz-adv-x="378" d="M-231 -390q18 89 56 163.5t88 133t98 101.5t85 67.5t47 30.5q18 10 25.5 46t13.5 83.5t18.5 98.5t45.5 92q10 -8 20 -20.5t15 -28.5q2 -14 -4.5 -32.5t-15.5 -43.5t-18.5 -57.5t-13.5 -77.5q39 27 73 47t58.5 31.5t38 10.5t7.5 -19q0 -20 -20.5 -40t-51.5 -37.5 t-62.5 -35t-52.5 -31.5q-2 0 -9 -51t-23.5 -129t-43 -170t-67.5 -174t-95.5 -141.5t-125.5 -71.5q-16 -4 -47 10t-39 57q-9 50 -9 97t9 91zM-175 -392q-7 -42 -7 -85q0 -46 8 -92q2 -10 15.5 -12.5t19.5 -8.5q72 49 123 118t83.5 150.5t49 171t20.5 179.5 q-84 -47 -148.5 -113t-106.5 -143.5t-57 -164.5zM260 672.5q2 25.5 6 52.5q18 -2 27.5 -3t13.5 -6t5 -16.5t5 -33.5q4 -23 2 -36.5t-10 -33.5q-23 -4 -34 5t-14 27.5t-1 44z" />
<glyph unicode="k" horiz-adv-x="641" d="M10 -6v59l475 1010q4 -4 10.5 6t12.5 17.5t10 3t2 -36.5q-2 -20 -25.5 -76.5t-58.5 -132.5t-76 -161t-75.5 -163t-58 -140.5t-25.5 -88.5q16 10 58 37.5t97.5 67.5t119 88t122.5 100q31 -12 29 -21.5t-2 -27.5q-121 -92 -219 -168q-41 -33 -82 -65t-74 -58.5t-55.5 -46 t-26.5 -25.5q-6 -10 4 -18.5t31.5 -16.5t51.5 -12t60 -4q66 0 117 12t109 29q14 -29 17 -39t1 -13.5t-8 -4.5t-10 -13q-4 -2 -28 -13t-50.5 -22.5t-50 -13.5t-27.5 14q-51 0 -98 6q-41 4 -83 11.5t-67 17.5q-16 8 -26.5 -6t-22.5 -33.5t-29.5 -38t-48.5 -20.5z" />
<glyph unicode="l" horiz-adv-x="378" d="M29 98q-3 15 -3 34q0 37 11 89q16 78 48 172t74 194.5t85 189.5t82 158t63 99q16 -18 24.5 -32.5t8.5 -34.5q-98 -172 -174 -332q-33 -68 -63.5 -140.5t-55.5 -142t-39 -132t-14 -111.5q0 -23 8 -30t17.5 -11t17.5 -9.5t5 -21.5q-10 -16 -19 -28.5t-29 -16.5 q-18 -2 -27.5 18t-19.5 88z" />
<glyph unicode="m" horiz-adv-x="641" d="M-8 -16v73q49 160 80.5 260.5t54.5 157.5t38 75.5t30 12.5q4 -10 6 -20.5t2 -20.5q0 -35 -12.5 -70.5t-25.5 -72.5t-25.5 -76t-12.5 -78q33 29 64.5 69t60.5 76t57.5 56t55.5 10q8 -20 11 -31.5t4 -19.5t0 -18.5t-1 -26.5q25 20 56.5 52t61 62.5t53 53t34.5 22.5 q14 0 27.5 -15t13.5 -38q-35 -82 -58 -160q-19 -67 -33 -141q-7 -39 -8 -74q0 -31 6 -59l-32 -25q-25 51 -25 96.5t7 89.5q8 44 16 87q5 25 4 52q0 19 -2 38q-6 -6 -26.5 -31.5t-46.5 -62.5t-55.5 -79t-54 -77t-43 -58.5t-22.5 -23.5q-12 0 -14 19.5t-2 37.5q0 16 9 41 t20 54.5t21.5 64.5t14.5 74q-63 -55 -102 -116.5t-71 -114t-61.5 -88t-74.5 -37.5z" />
<glyph unicode="n" horiz-adv-x="559" d="M2 55l152 459q6 2 14 6q6 2 13 4t14 0q14 -4 9 -33.5t-9 -52.5q-8 -45 -24.5 -89t-27.5 -85q45 49 92.5 100.5t92.5 90.5t85 57q22 10 41 10q15 0 27 -6q8 -4 15.5 -16.5t12.5 -25.5t8 -24l3 -12q0 -31 -13 -66.5t-29.5 -81.5t-30 -102.5t-13.5 -124.5q0 -23 -22.5 -43 t-51.5 -24q-2 10 -8 18.5t-6 18.5q0 35 16.5 88t35 111.5t35 117t16.5 103.5q-55 -14 -103.5 -58.5t-91.5 -97.5t-81 -108.5t-68.5 -95.5t-56 -53t-46.5 15z" />
<glyph unicode="o" horiz-adv-x="587" d="M10 80q-2 12 14.5 57t44 104.5t64.5 128t79 129t86 106.5t87 63q4 -8 12.5 -21.5t1.5 -21.5q-20 -20 -53 -59.5t-69.5 -89.5t-74.5 -106.5t-68 -111.5t-48 -105.5t-18 -84.5q-2 -10 15 -19.5t36 -7.5q25 2 64.5 26.5t84.5 63.5t91.5 90t82.5 105q36 56 56 112 q16 44 15 82q0 11 -1 23q-47 -14 -84 -65.5t-66.5 -109t-52 -104.5t-43.5 -53q-2 6 -13 19.5t-5 33.5q18 37 48 97.5t65.5 117t74.5 99.5t74 47q16 0 34.5 -29t20.5 -64q1 -8 0 -17q1 -47 -17 -99q-22 -62 -60.5 -123.5t-89 -119.5t-102.5 -103t-101.5 -74t-85.5 -31 q-6 0 -21.5 8.5t-32 23.5t-30 36.5t-15.5 46.5z" />
<glyph unicode="p" horiz-adv-x="641" d="M-204 -608q1 10 3 14q45 113 100.5 230.5t98.5 267.5q25 86 61.5 181t71.5 177q39 96 84 189q-2 23 6 32t22.5 11t30 2t27.5 6q71 26 171 26h7q39 0 63.5 -15t39 -41t19.5 -57.5t5 -64.5q0 -59 -24.5 -116.5t-67.5 -104.5t-100.5 -75.5t-122.5 -28.5q-12 0 -32.5 5 t-40 17t-35 30.5t-17.5 45.5q18 25 32.5 21.5t29 -16.5t30.5 -28.5t41 -15.5q27 0 71 16.5t86 50t72.5 88t30.5 132.5q0 51 -17.5 74.5t-82.5 23.5q-59 0 -100.5 -15.5t-72 -43t-53 -65.5t-40.5 -85q-76 -174 -123 -299t-78 -212t-49.5 -146.5t-32.5 -102.5t-30.5 -78.5 t-43.5 -76.5q-18 0 -26.5 8t-11.5 18.5t-2 20.5z" />
<glyph unicode="q" horiz-adv-x="745" d="M-14 10q0 6 9 23.5t24.5 40t36 49.5t40.5 53q50 63 113 137q74 92 141 166q29 31 58.5 61.5t56.5 54t48.5 38t35.5 14.5q23 0 38 -17.5t25 -29.5v-49l-10 -21q-14 10 -25.5 32t-21.5 22q-4 0 -66.5 -46t-150.5 -155q-16 -18 -53 -57t-76 -85t-69.5 -95.5t-33.5 -90.5 l541 475l43 -18q-20 -31 -43.5 -63.5t-43 -66.5t-35 -68.5t-19.5 -71.5q20 -4 56 -5t72 -16.5t62.5 -53.5t26.5 -118q0 -78 -34 -156.5t-87 -151.5t-115.5 -136.5t-119 -110.5t-99.5 -73.5t-55 -26.5q-23 0 -50.5 25.5t-27.5 70.5q0 20 17.5 69.5t42 111t55.5 130t57.5 128 t46 103.5t21.5 58q-63 -31 -90 -46t-35 -24q-8 -8 2 -10l14 60q8 10 27 22q14 10 38.5 26.5t61.5 35.5q14 29 29.5 51t28 43.5t20.5 45t10 54.5q-145 -119 -227 -192.5t-130 -116.5t-77 -61.5t-65 -24.5q-4 0 -21.5 14.5t-17.5 42.5zM231 -496.5q-2 -19.5 2.5 -32t18.5 -6.5 q152 80 245 181.5t144 191.5q59 104 84 211q0 39 -11.5 66.5t-26.5 45t-28.5 26t-17.5 8.5q-23 0 -65.5 -8t-69.5 -37q-31 -68 -65.5 -146t-69.5 -154.5t-66 -145.5t-53 -120q-6 -14 -12.5 -37.5t-8.5 -43z" />
<glyph unicode="r" horiz-adv-x="499" d="M18 72q0 29 18.5 68.5t47.5 83.5t60.5 87t60 77t47.5 56l18 23q0 12 -20.5 21.5t-43 18.5t-36.5 21.5t-4 28.5q14 29 41 29q23 0 35 -13.5t20 -30t18.5 -29.5t30.5 -13q16 0 27.5 7t21 15t19.5 16.5t27 12.5q29 8 53 10t51 -10t4.5 -23.5t-61.5 -23.5t-75 -27.5 t-36 -40.5q0 -41 -13.5 -91t-36 -102.5t-51 -100.5t-60 -83.5t-63.5 -53t-59 -7.5q-23 10 -32 29.5t-9 44.5zM88 59q14 -8 36.5 9.5t47.5 48t47.5 69.5t36.5 74t16 62.5t-14 35.5q-8 4 -24.5 -16t-38 -52t-44 -71t-39 -73.5t-24.5 -59.5t0 -27z" />
<glyph unicode="s" horiz-adv-x="604" d="M18 268q0 31 56.5 88.5t141.5 121t184.5 124t183.5 96.5q2 -6 14 -9t26.5 -5t26 -6t11.5 -10q-59 -39 -113 -68q-45 -25 -88 -44q-33 -14 -51 -14q-6 0 -11 1q-12 -2 -53 -23.5t-89 -56.5t-90 -78t-54 -86h12q57 1 119 17q68 18 129 37.5t109 31.5q22 6 39 6q20 0 32 -8 q14 -8 7 -26.5t-7 -34.5q0 -2 -12.5 -16.5t-30.5 -35t-39.5 -42t-42.5 -38.5q-35 -31 -80 -59.5t-87 -51t-73.5 -35.5t-42.5 -13q-14 0 -22 -5.5t-23 -7.5q2 31 48.5 63t104.5 67.5t112.5 75.5t70.5 87q-27 0 -77 -15t-106 -35.5t-109.5 -37t-84.5 -16.5q-23 0 -32 22.5 t-9 38.5z" />
<glyph unicode="t" horiz-adv-x="542" d="M31 -33v86q8 68 24.5 136.5t36 128t39 105.5t33.5 71q-27 -4 -36 -10.5t-15.5 -12.5t-15.5 -12t-36 -13v50q18 27 36 42t38.5 25t44 20.5t56.5 28.5q63 147 107 248t78 172.5t64.5 124.5t71.5 107q2 -4 10 -5.5t15.5 -1.5h13.5t4 -6q-4 -16 -24.5 -62t-48 -106.5 t-61.5 -129t-63.5 -131t-54 -110.5t-35.5 -69q6 0 62.5 18.5t195.5 40.5h70v-59q0 -8 -11.5 -17.5t-25.5 -16.5t-26.5 -11t-14.5 -4q-23 0 -36 17.5t-33 13.5q-72 -20 -122 -37t-108 -35q-41 -59 -91 -165.5t-81 -237.5q2 0 6 -4.5t10.5 -4.5t16.5 6.5t22 26.5l5 -90 q-18 -25 -29.5 -45.5t-23 -35.5t-27 -25.5t-41.5 -10.5z" />
<glyph unicode="u" horiz-adv-x="581" d="M18 76q0 55 27 140t62.5 168t69.5 147.5t50 80.5q2 -6 5.5 -8t6.5 -4t5 -7t2 -20q0 -37 -26.5 -93t-58.5 -122q-31 -66 -55 -134q-19 -55 -19 -103q0 -13 1 -25q37 14 75 46t78 72t84 83t95 82q51 106 74.5 160.5t46.5 54.5q4 0 21.5 -14.5t17.5 -26.5q0 -2 -24 -43 t-52.5 -104.5t-52 -141.5t-23.5 -155q0 -2 -13.5 -16.5t-26.5 -13.5q-14 1 -22 33q-4 14 -3 40q0 33 6 86q-45 -31 -87 -71t-82 -76t-76 -59.5t-67 -23.5q-29 0 -34 20.5t-5 47.5z" />
<glyph unicode="v" horiz-adv-x="499" d="M49 117q0 49 4 80.5t10.5 59.5t10.5 56.5t4 67.5q2 51 10 94q6 37 14.5 68.5t20.5 40.5q27 -31 36 -52.5t6 -57.5t-16.5 -96.5t-27.5 -168.5l342 385q8 -4 17 -6t17.5 -6t10.5 -10.5t-6 -18.5l-412 -557q-42 20 -42 50z" />
<glyph unicode="w" horiz-adv-x="768" d="M6 86q41 121 80 231q33 94 72 190.5t71 151.5q6 -4 11.5 -3t9.5 -2t6 -12t2 -32q0 -31 -20.5 -79t-46 -109.5t-52 -131t-39.5 -138.5q45 18 102.5 81.5t112 137t100.5 141.5t68 98q23 -18 26 -33.5t-1 -25.5q-8 -12 -23 -23q0 -23 -9 -74t-19.5 -109t-19.5 -112.5 t-9 -80.5q0 -18 1 -26t5 -24q33 4 67 45t65.5 100.5t61 128t54.5 131t42 111t28 62.5q18 -16 27 -21.5t9 -27.5q0 -4 -17 -52.5t-46 -118t-65.5 -149.5t-74.5 -148.5t-75 -113.5t-66 -45q-41 0 -50 52.5t-9 133.5q0 43 2 64.5t4 37.5t4 38q1 11 1 27.5t-1 37.5 q-6 -10 -47 -68.5t-95 -126t-109.5 -121.5t-92.5 -54q-23 0 -32 19t-13 42z" />
<glyph unicode="x" horiz-adv-x="573" d="M14 80q0 16 18.5 41.5t45 54.5t58.5 58.5t57.5 57t41 51.5t11.5 38q-8 31 -23.5 66.5t-32 70.5t-32 67.5t-21.5 57.5q0 6 4 7t10.5 1t12.5 1t10 7q23 -16 40 -44.5t32.5 -62.5t28 -67.5t22.5 -58.5q39 20 80 62t76.5 85t66.5 76t49 33t26.5 -20.5t8.5 -36.5 q-76 -76 -133 -140q-25 -27 -49.5 -54.5t-43 -51t-29.5 -42t-11 -26.5q0 -33 10 -61.5t22.5 -60t20.5 -71.5q5 -27 5 -60q0 -17 -1 -35q-39 8 -48 12t-13 25.5t-13.5 67.5t-46.5 136q-20 -14 -40.5 -31.5t-32.5 -39.5q-16 -27 -28.5 -55.5t-28 -51.5t-38 -38t-57.5 -15 q-29 0 -32 15t-3 32z" />
<glyph unicode="y" horiz-adv-x="483" d="M-240 -530l365 643q-4 6 -10 35.5t-14.5 69.5t-16.5 85t-17.5 86t-17.5 73t-12 42l35 14q18 -6 28.5 -47t19.5 -93t21 -106.5t35 -91.5q25 23 58.5 65t68.5 91l70 98t63.5 87t48 58.5t25.5 12.5q4 -6 12 -7t17.5 -3t15.5 -8.5t6 -20.5q-4 -23 -25.5 -32t-43.5 -23 q-18 -20 -53.5 -67.5t-81.5 -112t-99 -141.5t-106.5 -155.5t-101.5 -154.5t-85 -139q-41 -72 -54 -121t-23.5 -84t-31 -56.5t-75.5 -35.5l-9 18t-5.5 8t-3.5 4t-3 9z" />
<glyph unicode="z" horiz-adv-x="542" d="M-143 -473q0 117 50 198.5t123.5 143t159.5 110t160 97.5q10 6 15.5 23.5t8.5 38t5 41t2 32.5q4 31 -25.5 24.5t-70.5 -28.5q-27 -14 -51.5 -33.5t-46 -38t-41 -31t-35.5 -12.5q-29 0 -23 21.5t32.5 58.5t69.5 84t86 97t80 99.5t56 90.5q-66 -14 -123.5 -53t-107.5 -83.5 t-91 -85t-72 -57.5q-4 14 -15 24.5t-1 26.5q33 63 151.5 146.5t295.5 165.5h49q4 -14 2 -23.5t-2 -32.5q0 -27 -12.5 -47t-36 -46.5t-56.5 -64.5t-74 -100q53 -14 81 -24t38.5 -26.5t7 -47.5t-9.5 -86q53 18 79 29.5t44.5 20.5t42 19.5t76.5 24.5q14 2 11 -9t9 -11 q-14 -18 -57 -39t-91 -44.5t-90 -46t-50 -42.5q-49 -193 -115 -344q-29 -66 -61.5 -127.5t-71.5 -108.5t-82 -76.5t-90 -29.5q-33 0 -57.5 16t-42 43t-25.5 59.5t-8 63.5zM-94 -483q0 -6 1 -24.5t7 -40t17 -38t34 -16.5q33 0 72 27.5t77 73.5t72.5 106.5t63.5 126t49 131 t27 123.5q-127 -47 -208 -110.5t-128 -130.5t-65.5 -128t-18.5 -100z" />
<glyph unicode="&#xa0;" />
<glyph unicode="&#xa9;" horiz-adv-x="1294" d="M20 250v153q0 113 49.5 208.5t125 163t163.5 105.5t166 38h224q27 0 92 -10.5t130.5 -39t117 -79t51.5 -130.5q0 -4 -9.5 -34.5t-31 -81.5t-55 -120t-85.5 -144q-2 -2 -29.5 -22.5t-69.5 -50.5t-92 -65t-97 -64.5t-86 -49t-56 -19.5q-20 0 -24 21.5t-8 46.5 q-33 -16 -59.5 -31.5t-53.5 -28t-57.5 -19.5t-71.5 -7q-70 0 -115 12t-71.5 42t-37 80t-10.5 126zM70 219q0 -29 6 -58.5t25.5 -55t53 -42t89.5 -16.5q20 0 51 8t64.5 21.5t64.5 33t53 44.5h58q-4 -23 -9.5 -42.5t-11.5 -35.5q117 33 221.5 106.5t182 161.5t123.5 175 t46 147q0 57 -47 94t-111.5 58.5t-129 30.5t-101.5 9q-123 0 -236.5 -22.5t-200.5 -90t-139 -193.5t-52 -333zM205 328q0 27 29.5 65.5t74.5 80.5t100.5 83t106.5 74t92 53.5t60 20.5q12 0 19 -7.5t11 -16.5t6.5 -16.5t2.5 -9.5q0 -16 -26 -46.5t-97 -67.5q-16 16 -18.5 19 t-12.5 20q-4 -2 -40 -22.5t-81 -53.5t-90 -76t-66 -90q45 -8 80 1t69 22.5t68.5 24.5t77.5 5q-14 -27 -76.5 -60.5t-181.5 -68.5q-10 -2 -18 -2q-8 -2 -17.5 -2h-15.5q-23 0 -40 19.5t-17 50.5z" />
<glyph unicode="&#xad;" d="M49 420q-2 39 24.5 60.5t65.5 33.5t82 22.5t74 28.5l84 -26q0 -23 -38 -41.5t-91 -33.5t-108.5 -25.5t-92.5 -18.5z" />
<glyph unicode="&#xc2;" horiz-adv-x="624" d="M23 195q4 53 42 129t140 168q121 109 207 134t114 -10q-164 -78 -265 -164.5t-148 -163.5t-45 -134.5t45 -73.5q14 -6 65 33t113.5 105.5t124 151.5t98.5 173q2 8 10 3t17.5 -14.5t15.5 -18.5t6 -11q-33 -86 -57.5 -135.5t-44 -78t-35.5 -44t-29.5 -32.5t-26 -43 t-24.5 -77q20 4 33 2q10 -2 13 -10t-13 -31q-10 -14 -31.5 -33.5t-48.5 -19.5t-34 24.5t-15 47.5q-27 -8 -44.5 -18.5t-31.5 -19.5t-28.5 -16.5t-32.5 -7.5q-14 0 -41 18.5t-27 51.5q-29 51 -22 115zM225 730q6 46 43 75q37 27 83 19.5t73 -42.5q29 -37 21.5 -83t-44.5 -74 q-35 -27 -81.5 -20t-73.5 42q-27 37 -21 83zM265 718q-3 -26 14 -48q16 -20 41.5 -23.5t48.5 12.5t24.5 42t-14.5 47q-16 23 -42 25.5t-46 -13.5q-23 -16 -26 -42z" />
<glyph unicode="&#xca;" horiz-adv-x="837" d="M-4 217q4 53 33.5 129t111.5 168q96 109 166 134.5t92 -9.5q-133 -78 -214 -165t-118.5 -164t-35.5 -134t37 -74q12 -6 53 33t90 105.5t98 151.5t78 173q4 8 10 3t13 -15q8 -10 16 -29l-2 -6q61 80 133 136.5t137 56.5q45 0 58.5 -28t13.5 -69q0 -49 -25.5 -98t-65.5 -94 t-90 -84t-100.5 -68.5t-94.5 -47t-71 -19.5q-20 -16 -19 -38t1 -32q0 -16 20.5 -32.5t36.5 -16.5q43 0 95.5 27.5t104.5 65.5t98 77t77 61q14 8 15.5 -1t9.5 -9q-12 -31 -56.5 -79t-100.5 -92t-118.5 -76.5t-111.5 -32.5q-33 0 -55.5 13t-39.5 34q-6 -14 -23 -31.5 t-38 -17.5q-20 0 -25.5 24.5t-13.5 46.5q-20 -8 -34.5 -18t-26 -20.5t-22.5 -17.5t-25 -7q-12 0 -34 19.5t-22 51.5q-23 51 -16 115zM254 113l6 2l-2 18q-2 -4 -2 -8q-2 -4 -2 -12zM356 293q37 -8 99.5 28.5t123 91t104.5 112t44 91.5q0 35 -14.5 41.5t-26.5 6.5 q-55 0 -113.5 -45.5t-106.5 -105.5t-79 -122.5t-31 -97.5z" />
<glyph unicode="&#xe5;" horiz-adv-x="931" d="M16 195q0 41 21.5 115.5t54.5 160.5t74 172t79 146.5t69.5 85t47.5 -10.5q-86 -137 -153 -264q-29 -55 -56.5 -113.5t-49 -114t-35 -106.5t-13.5 -90q0 -31 13.5 -63.5t42.5 -32.5q6 0 47 22.5t97 85t114.5 174t97.5 289.5q0 10 4 23.5t4 25.5q-27 -16 -47 -16v61 q8 6 22.5 16.5t30.5 22.5v18.5t2 14.5q0 8 2 12q-39 -10 -74.5 -54t-68.5 -104.5t-60.5 -131t-50 -133t-38 -109.5t-23.5 -61q-6 14 -9 17t-4 3t-1 3v20q0 43 18.5 107.5t47 134t65.5 139t73.5 125t69 90t55.5 34.5q12 0 19.5 -11t10.5 -26.5t4 -34t1 -32.5q41 23 90 47.5 t96.5 43.5t84 32.5t53.5 13.5q12 0 16 -8t5 -18.5t1 -22.5t4 -21q-16 -10 -41.5 -21t-55.5 -24.5t-61.5 -28t-58.5 -30.5q-2 -43 -10 -82q-6 -35 -15.5 -74t-19.5 -69q78 33 133.5 63.5t94 56t64.5 43t44 23.5q10 0 10 -15.5t9 -29.5q-35 -29 -83.5 -61.5t-100.5 -64.5 t-104 -64.5t-95 -61.5q2 -37 -2 -74q-4 -33 -11.5 -71.5t-21.5 -73.5l358 197q8 -4 12 -13q4 -8 4.5 -19t-10.5 -28q-98 -66 -193 -118t-194 -117q-6 -23 -11 -47.5t-10 -44t-9.5 -33t-10.5 -13.5q-8 4 -14 12.5t-10 16.5l-13 21q-2 0 -7 -7.5t-14 -15.5t-25.5 -15t-41.5 -7 q-18 14 -13 38.5t25.5 51t49 53.5t57.5 45q10 29 14.5 51.5t6.5 48t7 56t17 75.5q-14 -4 -24.5 -11t-20.5 -14t-23.5 -11.5t-31.5 -2.5l2 17q-31 -76 -69 -142.5t-77.5 -116.5t-80.5 -79t-78 -29q-29 0 -47.5 17.5t-30.5 44t-17.5 59.5t-5.5 62zM442 424q16 16 37 33.5 t56 40.5q16 41 27 108.5t26 157.5q-10 -8 -30.5 -19.5t-43.5 -21.5q-4 -72 -23.5 -147.5t-48.5 -151.5z" />
<glyph unicode="&#xf7;" horiz-adv-x="686" d="M10 180q-2 41 24.5 116t67.5 161t92.5 171t99.5 146.5t88 86t60 -10.5q-109 -137 -192 -264q-37 -55 -71 -113.5t-61.5 -114t-44 -106.5t-16.5 -90q0 -31 17.5 -63.5t50.5 -32.5q6 0 59.5 22.5t123 85t143 174t122.5 289.5q6 25 10.5 54.5t8.5 58.5q4 33 4 65 q-49 -10 -94 -54t-86 -105.5t-76 -131t-62.5 -133t-48 -111t-28.5 -61.5q-6 14 -10.5 17.5t-5.5 4.5t-1 4v19q0 43 22.5 107.5t58.5 134t82 139.5t91 124t87 89t71 35q20 0 29.5 -20.5t11.5 -45t0 -46t-2 -23.5q0 -74 -22.5 -159t-61.5 -170t-90 -163t-106.5 -137t-113 -95 t-108.5 -36q-35 0 -57.5 17.5t-37.5 44t-21.5 59.5t-6.5 61zM323 1069.5q9 26.5 35 36.5q25 10 51.5 1t36.5 -34q10 -27 1 -53.5t-33 -36.5q-27 -10 -53.5 -1t-36.5 34q-10 27 -1 53.5zM537 1028q-10 23 0 46.5t32 31.5q23 8 46.5 -1t31.5 -32q10 -23 0 -46t-33 -34 q-23 -8 -46 2t-31 33z" />
<glyph unicode="&#xfa;" horiz-adv-x="849" d="M16 94q0 12 13.5 57.5t35 105.5t51 128t63.5 129t70 107.5t68 62.5q0 -10 8.5 -23.5t2.5 -19.5q-25 -31 -69 -101.5t-88 -154.5t-76 -167t-32 -136q0 -10 13.5 -18.5t27.5 -8.5t38 15.5t51.5 43t57.5 63.5t58 77q0 6 3 13t12 7q43 68 72.5 143t23.5 140 q-39 -12 -68.5 -63.5t-53.5 -108.5t-42 -105.5t-35 -54.5q0 8 -9 21.5t-5 32.5q14 37 38.5 97t53.5 116.5t59.5 99.5t59.5 47q14 0 28.5 -28.5t14.5 -63.5q0 -16 -1 -30.5t-1 -31.5q33 45 69.5 86t74.5 72t77 49.5t74 18.5q45 0 57 -28t12 -69q0 -74 -54 -146.5t-127 -130.5 t-147.5 -95t-115.5 -39q-20 -16 -19.5 -38t0.5 -32q0 -16 21.5 -32.5t36.5 -16.5q43 0 95 27.5t103.5 65.5t98.5 77t78 61q12 10 15 0t7 -10q-12 -31 -55 -79t-100.5 -92t-119 -76.5t-112.5 -32.5q-37 0 -60.5 16t-37 40.5t-15.5 52.5t9 50q-29 -43 -60 -79.5t-61.5 -64.5 t-58 -44t-50.5 -16q-4 0 -17.5 8t-26.5 23.5t-23.5 37t-10.5 45.5zM324 184l4 4zM328 188l2 2zM414 293q25 -6 62.5 10t78.5 44t83 65t74.5 74.5t53 72.5t20.5 57q0 35 -14 41.5t-24 6.5q-55 0 -115 -45.5t-108 -105.5t-79.5 -122.5t-31.5 -97.5z" />
<glyph unicode="&#x2c6;" horiz-adv-x="641" d="M10 80q-2 12 14.5 57t44 104.5t64.5 128t79 129t86 106.5t87 63q4 -8 12.5 -21.5t1.5 -21.5q-20 -20 -53 -59.5t-69.5 -89.5t-74.5 -106.5t-68 -111.5t-48 -105.5t-18 -84.5q-2 -10 15 -19.5t36 -7.5q25 2 64.5 26.5t84.5 63.5t91.5 90t82 105.5t56 111t14.5 105.5 q-47 -14 -84 -65.5t-66.5 -109t-52 -104.5t-43.5 -53q-2 6 -13 19.5t-5 33.5q18 37 48 97.5t65.5 117t74.5 99.5t74 47q16 0 34.5 -29t20.5 -64q4 -53 -17.5 -115.5t-60 -124t-89 -119.5t-102.5 -103t-101.5 -74t-85.5 -31q-6 0 -21.5 8.5t-32 23.5t-30 36.5t-15.5 46.5z M226 857.5q7 25.5 30 35.5q23 12 48.5 4t35.5 -31q12 -23 4 -48t-31 -36q-23 -10 -48.5 -3t-35.5 30t-3 48.5zM451 869.5q8 25.5 30 35.5q23 10 47.5 2t34.5 -30q12 -23 4 -47.5t-30 -36.5q-23 -10 -48.5 -2.5t-35.5 30.5t-2 48.5z" />
<glyph unicode="&#x2000;" horiz-adv-x="779" />
<glyph unicode="&#x2001;" horiz-adv-x="1559" />
<glyph unicode="&#x2002;" horiz-adv-x="779" />
<glyph unicode="&#x2003;" horiz-adv-x="1559" />
<glyph unicode="&#x2004;" horiz-adv-x="519" />
<glyph unicode="&#x2005;" horiz-adv-x="389" />
<glyph unicode="&#x2006;" horiz-adv-x="259" />
<glyph unicode="&#x2007;" horiz-adv-x="259" />
<glyph unicode="&#x2008;" horiz-adv-x="194" />
<glyph unicode="&#x2009;" horiz-adv-x="311" />
<glyph unicode="&#x200a;" horiz-adv-x="86" />
<glyph unicode="&#x2010;" d="M49 420q-2 39 24.5 60.5t65.5 33.5t82 22.5t74 28.5l84 -26q0 -23 -38 -41.5t-91 -33.5t-108.5 -25.5t-92.5 -18.5z" />
<glyph unicode="&#x2011;" d="M49 420q-2 39 24.5 60.5t65.5 33.5t82 22.5t74 28.5l84 -26q0 -23 -38 -41.5t-91 -33.5t-108.5 -25.5t-92.5 -18.5z" />
<glyph unicode="&#x2012;" d="M49 420q-2 39 24.5 60.5t65.5 33.5t82 22.5t74 28.5l84 -26q0 -23 -38 -41.5t-91 -33.5t-108.5 -25.5t-92.5 -18.5z" />
<glyph unicode="&#x2013;" horiz-adv-x="1157" d="M48 420q-6 39 76.5 60.5t203.5 33.5t254 22.5t229 28.5l261 -26q0 -23 -118 -41.5t-282.5 -33.5t-336.5 -25.5t-287 -18.5z" />
<glyph unicode="&#x2014;" horiz-adv-x="2181" d="M49 420q-13 39 151.5 60.5t406.5 33.5t509 22.5t459 28.5l521 -26q0 -23 -235.5 -41.5t-564.5 -33.5t-673.5 -25.5t-573.5 -18.5z" />
<glyph unicode="&#x202f;" horiz-adv-x="311" />
<glyph unicode="&#x205f;" horiz-adv-x="389" />
<glyph unicode="&#x25fc;" horiz-adv-x="686" d="M0 0v686h686v-686h-686z" />
</font>
</defs>
</svg>
